<mxfile host="app.diagrams.net" modified="2023-12-27T16:32:03.372Z" agent="Mozilla/5.0 (Windows NT 10.0; Win64; x64) AppleWebKit/537.36 (KHTML, like Gecko) Chrome/120.0.0.0 Safari/537.36 Edg/120.0.0.0" etag="8ox_zaaRqc__GRJ5fIbc" version="22.1.14" type="device">
  <diagram name="Страница — 1" id="F9aMmNUYxdNKwFEJwSNs">
    <mxGraphModel dx="5463" dy="10335" grid="1" gridSize="10" guides="1" tooltips="1" connect="1" arrows="1" fold="1" page="1" pageScale="1" pageWidth="1169" pageHeight="1654" math="0" shadow="0">
      <root>
        <mxCell id="0" />
        <mxCell id="1" parent="0" />
        <mxCell id="rEJHbTGSHuWmZIYcSW5n-1" value="&lt;div style=&quot;font-size: 1px&quot;&gt;&lt;/div&gt;" style="verticalAlign=middle;align=center;vsdxID=417;rotation=90;fillColor=none;gradientColor=none;shape=stencil(nZBLDoAgDERP0z3SIyjew0SURgSD+Lu9kMZoXLhwN9O+tukAlrNpJg1SzDH4QW/URgNYgZTkjA4UkwJUgGXng+6DX1zLfmoymdXo17xh5zmRJ6Q42BWCfc2oJfdAr+Yv+AP9Cb7OJ3H/2JG1HNGz/84klThPVCc=);strokeColor=#000000;strokeWidth=3;points=[];labelBackgroundColor=none;rounded=0;html=1;whiteSpace=wrap;" vertex="1" parent="1">
          <mxGeometry x="-4468" y="-8892" width="2336" height="1580" as="geometry" />
        </mxCell>
        <mxCell id="rEJHbTGSHuWmZIYcSW5n-2" value="" style="group" vertex="1" connectable="0" parent="1">
          <mxGeometry x="-3254" y="-7155" width="744" height="223" as="geometry" />
        </mxCell>
        <UserObject label="" tags="Фон" id="rEJHbTGSHuWmZIYcSW5n-3">
          <mxCell style="vsdxID=660;edgeStyle=none;startArrow=none;endArrow=none;startSize=5;endSize=5;strokeWidth=3;strokeColor=#000000;spacingTop=0;spacingBottom=0;spacingLeft=0;spacingRight=0;verticalAlign=middle;html=1;labelBackgroundColor=none;rounded=0;" edge="1" parent="rEJHbTGSHuWmZIYcSW5n-2">
            <mxGeometry relative="1" as="geometry">
              <Array as="points" />
              <mxPoint x="4" y="222" as="sourcePoint" />
              <mxPoint x="4" y="2" as="targetPoint" />
            </mxGeometry>
          </mxCell>
        </UserObject>
        <UserObject label="" tags="Фон" id="rEJHbTGSHuWmZIYcSW5n-4">
          <mxCell style="vsdxID=661;edgeStyle=none;startArrow=none;endArrow=none;startSize=5;endSize=5;strokeWidth=3;strokeColor=#000000;spacingTop=0;spacingBottom=0;spacingLeft=0;spacingRight=0;verticalAlign=middle;html=1;labelBackgroundColor=none;rounded=0;" edge="1" parent="rEJHbTGSHuWmZIYcSW5n-2">
            <mxGeometry relative="1" as="geometry">
              <mxPoint as="offset" />
              <Array as="points" />
              <mxPoint x="4" y="2" as="sourcePoint" />
              <mxPoint x="744" y="2" as="targetPoint" />
            </mxGeometry>
          </mxCell>
        </UserObject>
        <UserObject label="" tags="Фон" id="rEJHbTGSHuWmZIYcSW5n-5">
          <mxCell style="vsdxID=662;edgeStyle=none;startArrow=none;endArrow=none;startSize=5;endSize=5;strokeWidth=3;strokeColor=#000000;spacingTop=0;spacingBottom=0;spacingLeft=0;spacingRight=0;verticalAlign=middle;html=1;labelBackgroundColor=none;rounded=0;" edge="1" parent="rEJHbTGSHuWmZIYcSW5n-2">
            <mxGeometry relative="1" as="geometry">
              <mxPoint as="offset" />
              <Array as="points" />
              <mxPoint x="4" y="62" as="sourcePoint" />
              <mxPoint x="744" y="62" as="targetPoint" />
            </mxGeometry>
          </mxCell>
        </UserObject>
        <UserObject label="&lt;div style=&quot;font-size: 1px&quot;&gt;&lt;/div&gt;" tags="Фон" id="rEJHbTGSHuWmZIYcSW5n-6">
          <mxCell style="vsdxID=663;edgeStyle=none;startArrow=none;endArrow=none;startSize=5;endSize=5;strokeWidth=3;strokeColor=#000000;spacingTop=0;spacingBottom=0;spacingLeft=0;spacingRight=0;verticalAlign=middle;html=1;labelBackgroundColor=none;rounded=0;align=center;" edge="1" parent="rEJHbTGSHuWmZIYcSW5n-2">
            <mxGeometry relative="1" as="geometry">
              <mxPoint as="offset" />
              <Array as="points" />
              <mxPoint x="4" y="162" as="sourcePoint" />
              <mxPoint x="744" y="162" as="targetPoint" />
            </mxGeometry>
          </mxCell>
        </UserObject>
        <UserObject label="" tags="Фон" id="rEJHbTGSHuWmZIYcSW5n-7">
          <mxCell style="vsdxID=664;edgeStyle=none;startArrow=none;endArrow=none;startSize=5;endSize=5;strokeWidth=3;strokeColor=#000000;spacingTop=0;spacingBottom=0;spacingLeft=0;spacingRight=0;verticalAlign=middle;html=1;labelBackgroundColor=none;rounded=0;" edge="1" parent="rEJHbTGSHuWmZIYcSW5n-2">
            <mxGeometry relative="1" as="geometry">
              <Array as="points" />
              <mxPoint x="72" y="222" as="sourcePoint" />
              <mxPoint x="72" y="2" as="targetPoint" />
            </mxGeometry>
          </mxCell>
        </UserObject>
        <UserObject label="" tags="Фон" id="rEJHbTGSHuWmZIYcSW5n-8">
          <mxCell style="vsdxID=665;edgeStyle=none;startArrow=none;endArrow=none;startSize=5;endSize=5;strokeWidth=3;strokeColor=#000000;spacingTop=0;spacingBottom=0;spacingLeft=0;spacingRight=0;verticalAlign=middle;html=1;labelBackgroundColor=none;rounded=0;" edge="1" parent="rEJHbTGSHuWmZIYcSW5n-2">
            <mxGeometry relative="1" as="geometry">
              <Array as="points" />
              <mxPoint x="164" y="222" as="sourcePoint" />
              <mxPoint x="164" y="2" as="targetPoint" />
            </mxGeometry>
          </mxCell>
        </UserObject>
        <UserObject label="" tags="Фон" id="rEJHbTGSHuWmZIYcSW5n-9">
          <mxCell style="vsdxID=666;edgeStyle=none;startArrow=none;endArrow=none;startSize=5;endSize=5;strokeWidth=3;strokeColor=#000000;spacingTop=0;spacingBottom=0;spacingLeft=0;spacingRight=0;verticalAlign=middle;html=1;labelBackgroundColor=none;rounded=0;" edge="1" parent="rEJHbTGSHuWmZIYcSW5n-2">
            <mxGeometry relative="1" as="geometry">
              <Array as="points" />
              <mxPoint x="224" y="222" as="sourcePoint" />
              <mxPoint x="224" y="2" as="targetPoint" />
            </mxGeometry>
          </mxCell>
        </UserObject>
        <UserObject label="" tags="Фон" id="rEJHbTGSHuWmZIYcSW5n-10">
          <mxCell style="vsdxID=667;edgeStyle=none;startArrow=none;endArrow=none;startSize=5;endSize=5;strokeWidth=3;strokeColor=#000000;spacingTop=0;spacingBottom=0;spacingLeft=0;spacingRight=0;verticalAlign=middle;html=1;labelBackgroundColor=none;rounded=0;" edge="1" parent="rEJHbTGSHuWmZIYcSW5n-2">
            <mxGeometry relative="1" as="geometry">
              <Array as="points" />
              <mxPoint x="264" y="222" as="sourcePoint" />
              <mxPoint x="264" y="2" as="targetPoint" />
            </mxGeometry>
          </mxCell>
        </UserObject>
        <UserObject label="" tags="Фон" id="rEJHbTGSHuWmZIYcSW5n-11">
          <mxCell style="vsdxID=668;edgeStyle=none;startArrow=none;endArrow=none;startSize=5;endSize=5;strokeWidth=3;strokeColor=#000000;spacingTop=0;spacingBottom=0;spacingLeft=0;spacingRight=0;verticalAlign=middle;html=1;labelBackgroundColor=none;rounded=0;" edge="1" parent="rEJHbTGSHuWmZIYcSW5n-2">
            <mxGeometry relative="1" as="geometry">
              <Array as="points" />
              <mxPoint x="544" y="222" as="sourcePoint" />
              <mxPoint x="544" y="62" as="targetPoint" />
            </mxGeometry>
          </mxCell>
        </UserObject>
        <UserObject label="" tags="Фон" id="rEJHbTGSHuWmZIYcSW5n-12">
          <mxCell style="vsdxID=669;edgeStyle=none;startArrow=none;endArrow=none;startSize=5;endSize=5;strokeColor=#000000;spacingTop=0;spacingBottom=0;spacingLeft=0;spacingRight=0;verticalAlign=middle;html=1;labelBackgroundColor=none;rounded=0;" edge="1" parent="rEJHbTGSHuWmZIYcSW5n-2">
            <mxGeometry relative="1" as="geometry">
              <mxPoint as="offset" />
              <Array as="points" />
              <mxPoint x="4" y="202" as="sourcePoint" />
              <mxPoint x="264" y="202" as="targetPoint" />
            </mxGeometry>
          </mxCell>
        </UserObject>
        <UserObject label="&lt;div style=&quot;font-size: 1px&quot;&gt;&lt;/div&gt;" tags="Фон" id="rEJHbTGSHuWmZIYcSW5n-13">
          <mxCell style="vsdxID=670;edgeStyle=none;startArrow=none;endArrow=none;startSize=5;endSize=5;strokeColor=#000000;spacingTop=0;spacingBottom=0;spacingLeft=0;spacingRight=0;verticalAlign=middle;html=1;labelBackgroundColor=none;rounded=0;align=center;" edge="1" parent="rEJHbTGSHuWmZIYcSW5n-2">
            <mxGeometry relative="1" as="geometry">
              <mxPoint as="offset" />
              <Array as="points" />
              <mxPoint x="4" y="182" as="sourcePoint" />
              <mxPoint x="264" y="182" as="targetPoint" />
            </mxGeometry>
          </mxCell>
        </UserObject>
        <UserObject label="" tags="Фон" id="rEJHbTGSHuWmZIYcSW5n-14">
          <mxCell style="vsdxID=671;edgeStyle=none;startArrow=none;endArrow=none;startSize=5;endSize=5;strokeColor=#000000;spacingTop=0;spacingBottom=0;spacingLeft=0;spacingRight=0;verticalAlign=middle;html=1;labelBackgroundColor=none;rounded=0;" edge="1" parent="rEJHbTGSHuWmZIYcSW5n-2">
            <mxGeometry relative="1" as="geometry">
              <mxPoint as="offset" />
              <Array as="points" />
              <mxPoint x="4" y="142" as="sourcePoint" />
              <mxPoint x="264" y="142" as="targetPoint" />
            </mxGeometry>
          </mxCell>
        </UserObject>
        <UserObject label="" tags="Фон" id="rEJHbTGSHuWmZIYcSW5n-15">
          <mxCell style="vsdxID=672;edgeStyle=none;startArrow=none;endArrow=none;startSize=5;endSize=5;strokeColor=#000000;spacingTop=0;spacingBottom=0;spacingLeft=0;spacingRight=0;verticalAlign=middle;html=1;labelBackgroundColor=none;rounded=0;" edge="1" parent="rEJHbTGSHuWmZIYcSW5n-2">
            <mxGeometry relative="1" as="geometry">
              <mxPoint as="offset" />
              <Array as="points" />
              <mxPoint x="4" y="122" as="sourcePoint" />
              <mxPoint x="264" y="122" as="targetPoint" />
            </mxGeometry>
          </mxCell>
        </UserObject>
        <UserObject label="&lt;div style=&quot;font-size: 1px&quot;&gt;&lt;/div&gt;" tags="Фон" id="rEJHbTGSHuWmZIYcSW5n-16">
          <mxCell style="vsdxID=673;edgeStyle=none;startArrow=none;endArrow=none;startSize=5;endSize=5;strokeWidth=3;strokeColor=#000000;spacingTop=0;spacingBottom=0;spacingLeft=0;spacingRight=0;verticalAlign=middle;html=1;labelBackgroundColor=none;rounded=0;align=center;" edge="1" parent="rEJHbTGSHuWmZIYcSW5n-2">
            <mxGeometry relative="1" as="geometry">
              <mxPoint as="offset" />
              <Array as="points" />
              <mxPoint x="4" y="102" as="sourcePoint" />
              <mxPoint x="264" y="102" as="targetPoint" />
            </mxGeometry>
          </mxCell>
        </UserObject>
        <UserObject label="" tags="Фон" id="rEJHbTGSHuWmZIYcSW5n-17">
          <mxCell style="vsdxID=674;edgeStyle=none;startArrow=none;endArrow=none;startSize=5;endSize=5;strokeWidth=3;strokeColor=#000000;spacingTop=0;spacingBottom=0;spacingLeft=0;spacingRight=0;verticalAlign=middle;html=1;labelBackgroundColor=none;rounded=0;" edge="1" parent="rEJHbTGSHuWmZIYcSW5n-2">
            <mxGeometry relative="1" as="geometry">
              <mxPoint as="offset" />
              <Array as="points" />
              <mxPoint x="4" y="82" as="sourcePoint" />
              <mxPoint x="264" y="82" as="targetPoint" />
            </mxGeometry>
          </mxCell>
        </UserObject>
        <UserObject label="" tags="Фон" id="rEJHbTGSHuWmZIYcSW5n-18">
          <mxCell style="vsdxID=675;edgeStyle=none;startArrow=none;endArrow=none;startSize=5;endSize=5;strokeColor=#000000;spacingTop=0;spacingBottom=0;spacingLeft=0;spacingRight=0;verticalAlign=middle;html=1;labelBackgroundColor=none;rounded=0;" edge="1" parent="rEJHbTGSHuWmZIYcSW5n-2">
            <mxGeometry relative="1" as="geometry">
              <mxPoint as="offset" />
              <Array as="points" />
              <mxPoint x="4" y="42" as="sourcePoint" />
              <mxPoint x="264" y="42" as="targetPoint" />
            </mxGeometry>
          </mxCell>
        </UserObject>
        <UserObject label="" tags="Фон" id="rEJHbTGSHuWmZIYcSW5n-19">
          <mxCell style="vsdxID=676;edgeStyle=none;startArrow=none;endArrow=none;startSize=5;endSize=5;strokeColor=#000000;spacingTop=0;spacingBottom=0;spacingLeft=0;spacingRight=0;verticalAlign=middle;html=1;labelBackgroundColor=none;rounded=0;" edge="1" parent="rEJHbTGSHuWmZIYcSW5n-2">
            <mxGeometry relative="1" as="geometry">
              <mxPoint as="offset" />
              <Array as="points" />
              <mxPoint x="4" y="22" as="sourcePoint" />
              <mxPoint x="264" y="22" as="targetPoint" />
            </mxGeometry>
          </mxCell>
        </UserObject>
        <UserObject label="" tags="Фон" id="rEJHbTGSHuWmZIYcSW5n-20">
          <mxCell style="vsdxID=677;edgeStyle=none;startArrow=none;endArrow=none;startSize=5;endSize=5;strokeWidth=3;strokeColor=#000000;spacingTop=0;spacingBottom=0;spacingLeft=0;spacingRight=0;verticalAlign=middle;html=1;labelBackgroundColor=none;rounded=0;" edge="1" parent="rEJHbTGSHuWmZIYcSW5n-2">
            <mxGeometry relative="1" as="geometry">
              <Array as="points" />
              <mxPoint x="32" y="2" as="sourcePoint" />
              <mxPoint x="32" y="102" as="targetPoint" />
            </mxGeometry>
          </mxCell>
        </UserObject>
        <mxCell id="rEJHbTGSHuWmZIYcSW5n-21" value="&lt;div style=&quot;font-size: 1px&quot;&gt;&lt;/div&gt;" style="text;vsdxID=677;edgeStyle=none;startArrow=none;endArrow=none;startSize=5;endSize=5;strokeWidth=3;strokeColor=none;spacingTop=0;spacingBottom=0;spacingLeft=0;spacingRight=0;verticalAlign=middle;html=1;labelBackgroundColor=none;rounded=0;align=center;fillColor=none;gradientColor=none;whiteSpace=wrap;;html=1;;rotation=270" vertex="1" parent="rEJHbTGSHuWmZIYcSW5n-20">
          <mxGeometry width="100" height="1" relative="1" as="geometry">
            <mxPoint x="-50" y="-0.5" as="offset" />
          </mxGeometry>
        </mxCell>
        <UserObject label="" tags="Фон" id="rEJHbTGSHuWmZIYcSW5n-22">
          <mxCell style="vsdxID=678;edgeStyle=none;startArrow=none;endArrow=none;startSize=5;endSize=5;strokeWidth=3;strokeColor=#000000;spacingTop=0;spacingBottom=0;spacingLeft=0;spacingRight=0;verticalAlign=middle;html=1;labelBackgroundColor=none;rounded=0;" edge="1" parent="rEJHbTGSHuWmZIYcSW5n-2">
            <mxGeometry relative="1" as="geometry">
              <mxPoint as="offset" />
              <Array as="points" />
              <mxPoint x="544" y="142" as="sourcePoint" />
              <mxPoint x="744" y="142" as="targetPoint" />
            </mxGeometry>
          </mxCell>
        </UserObject>
        <UserObject label="" tags="Фон" id="rEJHbTGSHuWmZIYcSW5n-23">
          <mxCell style="vsdxID=679;edgeStyle=none;startArrow=none;endArrow=none;startSize=5;endSize=5;strokeWidth=3;strokeColor=#000000;spacingTop=0;spacingBottom=0;spacingLeft=0;spacingRight=0;verticalAlign=middle;html=1;labelBackgroundColor=none;rounded=0;" edge="1" parent="rEJHbTGSHuWmZIYcSW5n-2">
            <mxGeometry relative="1" as="geometry">
              <mxPoint as="offset" />
              <Array as="points" />
              <mxPoint x="544" y="82" as="sourcePoint" />
              <mxPoint x="744" y="82" as="targetPoint" />
            </mxGeometry>
          </mxCell>
        </UserObject>
        <UserObject label="" tags="Фон" id="rEJHbTGSHuWmZIYcSW5n-24">
          <mxCell style="vsdxID=680;edgeStyle=none;startArrow=none;endArrow=none;startSize=5;endSize=5;strokeColor=#000000;spacingTop=0;spacingBottom=0;spacingLeft=0;spacingRight=0;verticalAlign=middle;html=1;labelBackgroundColor=none;rounded=0;" edge="1" parent="rEJHbTGSHuWmZIYcSW5n-2">
            <mxGeometry relative="1" as="geometry">
              <Array as="points" />
              <mxPoint x="564" y="82" as="sourcePoint" />
              <mxPoint x="564" y="142" as="targetPoint" />
            </mxGeometry>
          </mxCell>
        </UserObject>
        <UserObject label="" tags="Фон" id="rEJHbTGSHuWmZIYcSW5n-25">
          <mxCell style="vsdxID=681;edgeStyle=none;startArrow=none;endArrow=none;startSize=5;endSize=5;strokeColor=#000000;spacingTop=0;spacingBottom=0;spacingLeft=0;spacingRight=0;verticalAlign=middle;html=1;labelBackgroundColor=none;rounded=0;" edge="1" parent="rEJHbTGSHuWmZIYcSW5n-2">
            <mxGeometry relative="1" as="geometry">
              <Array as="points" />
              <mxPoint x="584" y="82" as="sourcePoint" />
              <mxPoint x="584" y="142" as="targetPoint" />
            </mxGeometry>
          </mxCell>
        </UserObject>
        <UserObject label="" tags="Фон" id="rEJHbTGSHuWmZIYcSW5n-26">
          <mxCell style="vsdxID=682;edgeStyle=none;startArrow=none;endArrow=none;startSize=5;endSize=5;strokeWidth=3;strokeColor=#000000;spacingTop=0;spacingBottom=0;spacingLeft=0;spacingRight=0;verticalAlign=middle;html=1;labelBackgroundColor=none;rounded=0;" edge="1" parent="rEJHbTGSHuWmZIYcSW5n-2">
            <mxGeometry relative="1" as="geometry">
              <Array as="points" />
              <mxPoint x="604" y="62" as="sourcePoint" />
              <mxPoint x="604" y="142" as="targetPoint" />
            </mxGeometry>
          </mxCell>
        </UserObject>
        <UserObject label="" tags="Фон" id="rEJHbTGSHuWmZIYcSW5n-27">
          <mxCell style="vsdxID=683;edgeStyle=none;startArrow=none;endArrow=none;startSize=5;endSize=5;strokeWidth=3;strokeColor=#000000;spacingTop=0;spacingBottom=0;spacingLeft=0;spacingRight=0;verticalAlign=middle;html=1;labelBackgroundColor=none;rounded=0;" edge="1" parent="rEJHbTGSHuWmZIYcSW5n-2">
            <mxGeometry relative="1" as="geometry">
              <Array as="points" />
              <mxPoint x="670" y="62" as="sourcePoint" />
              <mxPoint x="670" y="142" as="targetPoint" />
            </mxGeometry>
          </mxCell>
        </UserObject>
        <UserObject label="" tags="Фон" id="rEJHbTGSHuWmZIYcSW5n-28">
          <mxCell style="vsdxID=684;edgeStyle=none;startArrow=none;endArrow=none;startSize=5;endSize=5;strokeWidth=3;strokeColor=#000000;spacingTop=0;spacingBottom=0;spacingLeft=0;spacingRight=0;verticalAlign=middle;html=1;labelBackgroundColor=none;rounded=0;" edge="1" parent="rEJHbTGSHuWmZIYcSW5n-2">
            <mxGeometry relative="1" as="geometry">
              <Array as="points" />
              <mxPoint x="624" y="142" as="sourcePoint" />
              <mxPoint x="624" y="162" as="targetPoint" />
            </mxGeometry>
          </mxCell>
        </UserObject>
        <UserObject label="&lt;div style=&quot;font-size: 1px&quot;&gt;&lt;font style=&quot;font-size:12.7px;font-family:GOST type A;color:#000000;direction:ltr;letter-spacing:0px;line-height:120%;opacity:1&quot;&gt;&lt;i&gt;Н.контроль&lt;br/&gt;&lt;/i&gt;&lt;/font&gt;&lt;/div&gt;" tags="Фон" id="rEJHbTGSHuWmZIYcSW5n-29">
          <mxCell style="verticalAlign=middle;align=center;vsdxID=685;fillColor=none;gradientColor=none;strokeColor=none;points=[];labelBackgroundColor=none;rounded=0;html=1;whiteSpace=wrap;" vertex="1" parent="rEJHbTGSHuWmZIYcSW5n-2">
            <mxGeometry y="183" width="76" height="19" as="geometry" />
          </mxCell>
        </UserObject>
        <UserObject label="&lt;div style=&quot;font-size: 1px&quot;&gt;&lt;font style=&quot;font-size:12.7px;font-family:GOST type A;color:#000000;direction:ltr;letter-spacing:0px;line-height:120%;opacity:1&quot;&gt;&lt;i&gt;Утв.&lt;br/&gt;&lt;/i&gt;&lt;/font&gt;&lt;/div&gt;" tags="Фон" id="rEJHbTGSHuWmZIYcSW5n-30">
          <mxCell style="verticalAlign=middle;align=center;vsdxID=686;fillColor=none;gradientColor=none;strokeColor=none;points=[];labelBackgroundColor=none;rounded=0;html=1;whiteSpace=wrap;" vertex="1" parent="rEJHbTGSHuWmZIYcSW5n-2">
            <mxGeometry x="5" y="202" width="65" height="19" as="geometry" />
          </mxCell>
        </UserObject>
        <UserObject label="&lt;div style=&quot;font-size: 1px&quot;&gt;&lt;font style=&quot;font-size:12.7px;font-family:GOST type A;color:#000000;direction:ltr;letter-spacing:0px;line-height:120%;opacity:1&quot;&gt;&lt;i&gt;Т.контроль&lt;br/&gt;&lt;/i&gt;&lt;/font&gt;&lt;/div&gt;" tags="Фон" id="rEJHbTGSHuWmZIYcSW5n-31">
          <mxCell style="verticalAlign=middle;align=center;vsdxID=687;fillColor=none;gradientColor=none;strokeColor=none;points=[];labelBackgroundColor=none;rounded=0;html=1;whiteSpace=wrap;" vertex="1" parent="rEJHbTGSHuWmZIYcSW5n-2">
            <mxGeometry y="142" width="74" height="18" as="geometry" />
          </mxCell>
        </UserObject>
        <UserObject label="&lt;div style=&quot;font-size: 1px&quot;&gt;&lt;font style=&quot;font-size:12.7px;font-family:GOST type A;color:#000000;direction:ltr;letter-spacing:0px;line-height:120%;opacity:1&quot;&gt;&lt;i&gt;Провер.&lt;br/&gt;&lt;/i&gt;&lt;/font&gt;&lt;/div&gt;" tags="Фон" id="rEJHbTGSHuWmZIYcSW5n-32">
          <mxCell style="verticalAlign=middle;align=center;vsdxID=688;fillColor=none;gradientColor=none;strokeColor=none;points=[];labelBackgroundColor=none;rounded=0;html=1;whiteSpace=wrap;" vertex="1" parent="rEJHbTGSHuWmZIYcSW5n-2">
            <mxGeometry x="5" y="122" width="65" height="19" as="geometry" />
          </mxCell>
        </UserObject>
        <UserObject label="&lt;div style=&quot;font-size: 1px&quot;&gt;&lt;font style=&quot;font-size:12.7px;font-family:GOST type A;color:#000000;direction:ltr;letter-spacing:0px;line-height:120%;opacity:1&quot;&gt;&lt;i&gt;Разраб.&lt;br/&gt;&lt;/i&gt;&lt;/font&gt;&lt;/div&gt;" tags="Фон" id="rEJHbTGSHuWmZIYcSW5n-33">
          <mxCell style="verticalAlign=middle;align=center;vsdxID=689;fillColor=none;gradientColor=none;strokeColor=none;points=[];labelBackgroundColor=none;rounded=0;html=1;whiteSpace=wrap;" vertex="1" parent="rEJHbTGSHuWmZIYcSW5n-2">
            <mxGeometry x="5" y="103" width="65" height="17" as="geometry" />
          </mxCell>
        </UserObject>
        <UserObject label="&lt;div style=&quot;font-size: 1px&quot;&gt;&lt;font style=&quot;font-size:12.7px;font-family:GOST type A;color:#000000;direction:ltr;letter-spacing:0px;line-height:120%;opacity:1&quot;&gt;&lt;i&gt;Изм.&lt;br/&gt;&lt;/i&gt;&lt;/font&gt;&lt;/div&gt;" tags="Фон" id="rEJHbTGSHuWmZIYcSW5n-34">
          <mxCell style="verticalAlign=middle;align=center;vsdxID=690;fillColor=none;gradientColor=none;strokeColor=none;points=[];labelBackgroundColor=none;rounded=0;html=1;whiteSpace=wrap;" vertex="1" parent="rEJHbTGSHuWmZIYcSW5n-2">
            <mxGeometry y="83" width="36" height="17" as="geometry" />
          </mxCell>
        </UserObject>
        <UserObject label="&lt;div style=&quot;font-size: 1px&quot;&gt;&lt;font style=&quot;font-size:12.7px;font-family:GOST type A;color:#000000;direction:ltr;letter-spacing:0px;line-height:120%;opacity:1&quot;&gt;&lt;i&gt;Лист&lt;br/&gt;&lt;/i&gt;&lt;/font&gt;&lt;/div&gt;" tags="Фон" id="rEJHbTGSHuWmZIYcSW5n-35">
          <mxCell style="verticalAlign=middle;align=center;vsdxID=691;fillColor=none;gradientColor=none;strokeColor=none;points=[];labelBackgroundColor=none;rounded=0;html=1;whiteSpace=wrap;" vertex="1" parent="rEJHbTGSHuWmZIYcSW5n-2">
            <mxGeometry x="30" y="83" width="42" height="17" as="geometry" />
          </mxCell>
        </UserObject>
        <UserObject label="&lt;div style=&quot;font-size: 1px&quot;&gt;&lt;font style=&quot;font-size:12.7px;font-family:GOST type A;color:#000000;direction:ltr;letter-spacing:0px;line-height:120%;opacity:1&quot;&gt;&lt;i&gt;№ докум.&lt;br/&gt;&lt;/i&gt;&lt;/font&gt;&lt;/div&gt;" tags="Фон" id="rEJHbTGSHuWmZIYcSW5n-36">
          <mxCell style="verticalAlign=middle;align=center;vsdxID=692;fillColor=none;gradientColor=none;strokeColor=none;points=[];labelBackgroundColor=none;rounded=0;html=1;whiteSpace=wrap;" vertex="1" parent="rEJHbTGSHuWmZIYcSW5n-2">
            <mxGeometry x="73" y="83" width="88" height="17" as="geometry" />
          </mxCell>
        </UserObject>
        <UserObject label="&lt;div style=&quot;font-size: 1px&quot;&gt;&lt;p style=&quot;align:left;margin-left:0;margin-right:0;margin-top:0px;margin-bottom:0px;text-indent:0;valign:middle;direction:ltr;&quot;&gt;&lt;font style=&quot;font-size:12.7px;font-family:GOST type A;color:#000000;direction:ltr;letter-spacing:0px;line-height:120%;opacity:1&quot;&gt;&lt;i&gt;Птахова А.М.&lt;br&gt;&lt;/i&gt;&lt;/font&gt;&lt;/p&gt;&lt;/div&gt;" tags="Фон" id="rEJHbTGSHuWmZIYcSW5n-37">
          <mxCell style="verticalAlign=middle;align=left;vsdxID=693;fillColor=none;gradientColor=none;strokeColor=none;points=[];labelBackgroundColor=none;rounded=0;html=1;whiteSpace=wrap;" vertex="1" parent="rEJHbTGSHuWmZIYcSW5n-2">
            <mxGeometry x="73" y="102" width="88" height="19" as="geometry" />
          </mxCell>
        </UserObject>
        <UserObject label="&lt;div style=&quot;font-size: 1px&quot;&gt;&lt;font style=&quot;font-size:12.7px;font-family:GOST type A;color:#000000;direction:ltr;letter-spacing:0px;line-height:120%;opacity:1&quot;&gt;&lt;i&gt;Подп.&lt;br/&gt;&lt;/i&gt;&lt;/font&gt;&lt;/div&gt;" tags="Фон" id="rEJHbTGSHuWmZIYcSW5n-38">
          <mxCell style="verticalAlign=middle;align=center;vsdxID=694;fillColor=none;gradientColor=none;strokeColor=none;points=[];labelBackgroundColor=none;rounded=0;html=1;whiteSpace=wrap;" vertex="1" parent="rEJHbTGSHuWmZIYcSW5n-2">
            <mxGeometry x="165" y="83" width="57" height="17" as="geometry" />
          </mxCell>
        </UserObject>
        <UserObject label="&lt;div style=&quot;font-size: 1px&quot;&gt;&lt;font style=&quot;font-size:12.7px;font-family:GOST type A;color:#000000;direction:ltr;letter-spacing:0px;line-height:120%;opacity:1&quot;&gt;&lt;i&gt;Дата&lt;br/&gt;&lt;/i&gt;&lt;/font&gt;&lt;/div&gt;" tags="Фон" id="rEJHbTGSHuWmZIYcSW5n-39">
          <mxCell style="verticalAlign=middle;align=center;vsdxID=695;fillColor=none;gradientColor=none;strokeColor=none;points=[];labelBackgroundColor=none;rounded=0;html=1;whiteSpace=wrap;" vertex="1" parent="rEJHbTGSHuWmZIYcSW5n-2">
            <mxGeometry x="222" y="83" width="42" height="17" as="geometry" />
          </mxCell>
        </UserObject>
        <UserObject label="&lt;div style=&quot;font-size: 1px&quot;&gt;&lt;font style=&quot;font-size:12.7px;font-family:GOST type A;color:#000000;direction:ltr;letter-spacing:0px;line-height:120%;opacity:1&quot;&gt;&lt;i&gt;Лит.&lt;br/&gt;&lt;/i&gt;&lt;/font&gt;&lt;/div&gt;" tags="Фон" id="rEJHbTGSHuWmZIYcSW5n-40">
          <mxCell style="verticalAlign=middle;align=center;vsdxID=696;fillColor=none;gradientColor=none;strokeColor=none;points=[];labelBackgroundColor=none;rounded=0;html=1;whiteSpace=wrap;" vertex="1" parent="rEJHbTGSHuWmZIYcSW5n-2">
            <mxGeometry x="544" y="63" width="57" height="17" as="geometry" />
          </mxCell>
        </UserObject>
        <UserObject label="&lt;div style=&quot;font-size: 1px&quot;&gt;&lt;font style=&quot;font-size:12.7px;font-family:GOST type A;color:#000000;direction:ltr;letter-spacing:0px;line-height:120%;opacity:1&quot;&gt;&lt;i&gt;Масса&lt;br/&gt;&lt;/i&gt;&lt;/font&gt;&lt;/div&gt;" tags="Фон" id="rEJHbTGSHuWmZIYcSW5n-41">
          <mxCell style="verticalAlign=middle;align=center;vsdxID=697;fillColor=none;gradientColor=none;strokeColor=none;points=[];labelBackgroundColor=none;rounded=0;html=1;whiteSpace=wrap;" vertex="1" parent="rEJHbTGSHuWmZIYcSW5n-2">
            <mxGeometry x="605" y="63" width="63" height="17" as="geometry" />
          </mxCell>
        </UserObject>
        <UserObject label="&lt;div style=&quot;font-size: 1px&quot;&gt;&lt;font style=&quot;font-size:12.7px;font-family:GOST type A;color:#000000;direction:ltr;letter-spacing:0px;line-height:120%;opacity:1&quot;&gt;&lt;i&gt;Масштаб&lt;br/&gt;&lt;/i&gt;&lt;/font&gt;&lt;/div&gt;" tags="Фон" id="rEJHbTGSHuWmZIYcSW5n-42">
          <mxCell style="verticalAlign=middle;align=center;vsdxID=698;fillColor=none;gradientColor=none;strokeColor=none;points=[];labelBackgroundColor=none;rounded=0;html=1;whiteSpace=wrap;" vertex="1" parent="rEJHbTGSHuWmZIYcSW5n-2">
            <mxGeometry x="671" y="63" width="71" height="17" as="geometry" />
          </mxCell>
        </UserObject>
        <UserObject label="&lt;div style=&quot;font-size: 1px&quot;&gt;&lt;font style=&quot;font-size:12.7px;font-family:GOST type A;color:#000000;direction:ltr;letter-spacing:0px;line-height:120%;opacity:1&quot;&gt;&lt;i&gt;Листов 1&lt;br&gt;&lt;/i&gt;&lt;/font&gt;&lt;/div&gt;" tags="Фон" id="rEJHbTGSHuWmZIYcSW5n-43">
          <mxCell style="verticalAlign=middle;align=center;vsdxID=699;fillColor=none;gradientColor=none;strokeColor=none;points=[];labelBackgroundColor=none;rounded=0;html=1;whiteSpace=wrap;" vertex="1" parent="rEJHbTGSHuWmZIYcSW5n-2">
            <mxGeometry x="625" y="143" width="117" height="17" as="geometry" />
          </mxCell>
        </UserObject>
        <UserObject label="&lt;div style=&quot;font-size: 1px&quot;&gt;&lt;font style=&quot;font-size:12.7px;font-family:GOST type A;color:#000000;direction:ltr;letter-spacing:0px;line-height:120%;opacity:1&quot;&gt;&lt;i&gt;Лист 1&lt;br&gt;&lt;/i&gt;&lt;/font&gt;&lt;/div&gt;" tags="Фон" id="rEJHbTGSHuWmZIYcSW5n-44">
          <mxCell style="verticalAlign=middle;align=center;vsdxID=700;fillColor=none;gradientColor=none;strokeColor=none;points=[];labelBackgroundColor=none;rounded=0;html=1;whiteSpace=wrap;" vertex="1" parent="rEJHbTGSHuWmZIYcSW5n-2">
            <mxGeometry x="545" y="143" width="76" height="17" as="geometry" />
          </mxCell>
        </UserObject>
        <UserObject label="&lt;div style=&quot;font-size: 1px&quot;&gt;&lt;p style=&quot;align:center;margin-left:0;margin-right:0;margin-top:0px;margin-bottom:0px;text-indent:0;valign:middle;direction:ltr;&quot;&gt;&lt;font style=&quot;font-size:33.87px;font-family:GOST type A;color:#000000;direction:ltr;letter-spacing:0px;line-height:120%;opacity:1&quot;&gt;&lt;i&gt;ТПЖА 09.03.01.487 ПЛ1&lt;br&gt;&lt;/i&gt;&lt;/font&gt;&lt;/p&gt;&lt;/div&gt;" tags="Фон" id="rEJHbTGSHuWmZIYcSW5n-45">
          <mxCell style="verticalAlign=middle;align=center;vsdxID=701;fillColor=none;gradientColor=none;strokeColor=none;points=[];labelBackgroundColor=none;rounded=0;html=1;whiteSpace=wrap;" vertex="1" parent="rEJHbTGSHuWmZIYcSW5n-2">
            <mxGeometry x="263" width="479" height="60" as="geometry" />
          </mxCell>
        </UserObject>
        <UserObject label="&lt;div style=&quot;font-size: 1px&quot;&gt;&lt;font style=&quot;font-size:19.76px;font-family:GOST type A;color:#000000;direction:ltr;letter-spacing:0px;line-height:120%;opacity:1&quot;&gt;&lt;i&gt;Структурная схема устройства&lt;/i&gt;&lt;/font&gt;&lt;/div&gt;" tags="Фон" id="rEJHbTGSHuWmZIYcSW5n-46">
          <mxCell style="verticalAlign=middle;align=center;vsdxID=702;fillColor=none;gradientColor=none;strokeColor=none;points=[];labelBackgroundColor=none;rounded=0;html=1;whiteSpace=wrap;" vertex="1" parent="rEJHbTGSHuWmZIYcSW5n-2">
            <mxGeometry x="263" y="61" width="279" height="101" as="geometry" />
          </mxCell>
        </UserObject>
        <UserObject label="&lt;div style=&quot;font-size: 1px&quot;&gt;&lt;p style=&quot;align:left;margin-left:0;margin-right:0;margin-top:0px;margin-bottom:0px;text-indent:0;valign:middle;direction:ltr;&quot;&gt;&lt;font style=&quot;font-size:12.7px;font-family:GOST type A;color:#000000;direction:ltr;letter-spacing:0px;line-height:120%;opacity:1&quot;&gt;&lt;i&gt;Клюкин В.Л.&lt;br&gt;&lt;/i&gt;&lt;/font&gt;&lt;/p&gt;&lt;/div&gt;" tags="Фон" id="rEJHbTGSHuWmZIYcSW5n-47">
          <mxCell style="verticalAlign=middle;align=left;vsdxID=703;fillColor=none;gradientColor=none;strokeColor=none;points=[];labelBackgroundColor=none;rounded=0;html=1;whiteSpace=wrap;" vertex="1" parent="rEJHbTGSHuWmZIYcSW5n-2">
            <mxGeometry x="73" y="121" width="88" height="21" as="geometry" />
          </mxCell>
        </UserObject>
        <UserObject label="&lt;div style=&quot;&quot;&gt;&lt;br&gt;&lt;/div&gt;" tags="Фон" id="rEJHbTGSHuWmZIYcSW5n-48">
          <mxCell style="verticalAlign=middle;align=center;vsdxID=704;fillColor=none;gradientColor=none;shape=stencil(nZBLDoAgDERP0z3SIyjew0SURgSD+Lu9kMZoXLhwN9O+tukAlrNpJg1SzDH4QW/URgNYgZTkjA4UkwJUgGXng+6DX1zLfmoymdXo17xh5zmRJ6Q42BWCfc2oJfdAr+Yv+AP9Cb7OJ3H/2JG1HNGz/84klThPVCc=);strokeColor=none;points=[];labelBackgroundColor=none;rounded=0;html=1;whiteSpace=wrap;" vertex="1" parent="rEJHbTGSHuWmZIYcSW5n-2">
            <mxGeometry x="263" y="159" width="280" height="60" as="geometry" />
          </mxCell>
        </UserObject>
        <UserObject label="&lt;div style=&quot;font-size: 1px&quot;&gt;&lt;font style=&quot;font-size:16.93px;font-family:GOST type A;color:#000000;direction:ltr;letter-spacing:0px;line-height:120%;opacity:1&quot;&gt;&lt;i&gt;Кафедра ЭВМ&lt;br&gt;Группа ИВТ-31&lt;br&gt;&lt;/i&gt;&lt;/font&gt;&lt;/div&gt;" tags="Фон" id="rEJHbTGSHuWmZIYcSW5n-49">
          <mxCell style="verticalAlign=middle;align=center;vsdxID=705;fillColor=none;gradientColor=none;shape=stencil(nZBLDoAgDERP0z3SIyjew0SURgSD+Lu9kMZoXLhwN9O+tukAlrNpJg1SzDH4QW/URgNYgZTkjA4UkwJUgGXng+6DX1zLfmoymdXo17xh5zmRJ6Q42BWCfc2oJfdAr+Yv+AP9Cb7OJ3H/2JG1HNGz/84klThPVCc=);strokeColor=none;points=[];labelBackgroundColor=none;rounded=0;html=1;whiteSpace=wrap;" vertex="1" parent="rEJHbTGSHuWmZIYcSW5n-2">
            <mxGeometry x="543" y="163" width="200" height="60" as="geometry" />
          </mxCell>
        </UserObject>
        <UserObject label="" tags="Фон" id="rEJHbTGSHuWmZIYcSW5n-50">
          <mxCell style="vsdxID=416;fillColor=none;gradientColor=none;points=[];labelBackgroundColor=none;rounded=0;strokeColor=none;html=1;whiteSpace=wrap;movable=0;resizable=0;rotatable=0;deletable=0;editable=0;connectable=0;" vertex="1" parent="1">
            <mxGeometry x="-4090" y="-9270" width="1580" height="2343" as="geometry" />
          </mxCell>
        </UserObject>
        <mxCell id="rEJHbTGSHuWmZIYcSW5n-51" value="&lt;div style=&quot;font-size: 1px&quot;&gt;&lt;/div&gt;" style="verticalAlign=middle;align=center;vsdxID=417;rotation=90;fillColor=none;gradientColor=none;shape=stencil(nZBLDoAgDERP0z3SIyjew0SURgSD+Lu9kMZoXLhwN9O+tukAlrNpJg1SzDH4QW/URgNYgZTkjA4UkwJUgGXng+6DX1zLfmoymdXo17xh5zmRJ6Q42BWCfc2oJfdAr+Yv+AP9Cb7OJ3H/2JG1HNGz/84klThPVCc=);strokeColor=#000000;strokeWidth=3;points=[];labelBackgroundColor=none;rounded=0;html=1;whiteSpace=wrap;" vertex="1" parent="rEJHbTGSHuWmZIYcSW5n-50">
          <mxGeometry x="-378" y="378" width="2336" height="1580" as="geometry" />
        </mxCell>
        <mxCell id="rEJHbTGSHuWmZIYcSW5n-52" style="vsdxID=466;fillColor=none;gradientColor=none;points=[];labelBackgroundColor=none;rounded=0;strokeColor=none;html=1;whiteSpace=wrap;" vertex="1" parent="rEJHbTGSHuWmZIYcSW5n-50">
          <mxGeometry x="1524" width="56" height="280" as="geometry" />
        </mxCell>
        <mxCell id="rEJHbTGSHuWmZIYcSW5n-53" style="vsdxID=467;fillColor=#FFFFFF;gradientColor=none;shape=stencil(nZBLDoAgDERP0z3SIyjew0SURgSD+Lu9kMZoXLhwN9O+tukAlrNpJg1SzDH4QW/URgNYgZTkjA4UkwJUgGXng+6DX1zLfmoymdXo17xh5zmRJ6Q42BWCfc2oJfdAr+Yv+AP9Cb7OJ3H/2JG1HNGz/84klThPVCc=);strokeWidth=3;points=[];labelBackgroundColor=none;rounded=0;html=1;whiteSpace=wrap;" vertex="1" parent="rEJHbTGSHuWmZIYcSW5n-52">
          <mxGeometry width="56" height="280" as="geometry" />
        </mxCell>
        <mxCell id="rEJHbTGSHuWmZIYcSW5n-54" value="&lt;div style=&quot;font-size: 1px&quot;&gt;&lt;p style=&quot;align:center;margin-left:0;margin-right:0;margin-top:0px;margin-bottom:0px;text-indent:0;valign:middle;direction:ltr;&quot;&gt;&lt;font style=&quot;font-size:25.4px;font-family:GOST type A;color:#000000;direction:ltr;letter-spacing:0px;line-height:120%;opacity:1&quot;&gt;&lt;i&gt;ТПЖА 09.03.01.487 ПЛ1&lt;/i&gt;&lt;/font&gt;&lt;font style=&quot;font-size:25.4px;font-family:0;color:#000000;direction:ltr;letter-spacing:0px;line-height:120%;opacity:1&quot;&gt;&lt;i&gt;&lt;br&gt;&lt;/i&gt;&lt;/font&gt;&lt;/p&gt;&lt;/div&gt;" style="verticalAlign=middle;align=center;vsdxID=468;rotation=270;fillColor=none;gradientColor=none;strokeColor=none;points=[];labelBackgroundColor=none;rounded=0;html=1;whiteSpace=wrap;" vertex="1" parent="rEJHbTGSHuWmZIYcSW5n-52">
          <mxGeometry x="-112" y="111" width="279" height="56" as="geometry" />
        </mxCell>
        <mxCell id="rEJHbTGSHuWmZIYcSW5n-55" value="" style="group" vertex="1" connectable="0" parent="rEJHbTGSHuWmZIYcSW5n-50">
          <mxGeometry x="836" y="2115" width="744" height="223" as="geometry" />
        </mxCell>
        <UserObject label="" tags="Фон" id="rEJHbTGSHuWmZIYcSW5n-56">
          <mxCell style="vsdxID=660;edgeStyle=none;startArrow=none;endArrow=none;startSize=5;endSize=5;strokeWidth=3;strokeColor=#000000;spacingTop=0;spacingBottom=0;spacingLeft=0;spacingRight=0;verticalAlign=middle;html=1;labelBackgroundColor=none;rounded=0;" edge="1" parent="rEJHbTGSHuWmZIYcSW5n-55">
            <mxGeometry relative="1" as="geometry">
              <Array as="points" />
              <mxPoint x="4" y="222" as="sourcePoint" />
              <mxPoint x="4" y="2" as="targetPoint" />
            </mxGeometry>
          </mxCell>
        </UserObject>
        <UserObject label="" tags="Фон" id="rEJHbTGSHuWmZIYcSW5n-57">
          <mxCell style="vsdxID=661;edgeStyle=none;startArrow=none;endArrow=none;startSize=5;endSize=5;strokeWidth=3;strokeColor=#000000;spacingTop=0;spacingBottom=0;spacingLeft=0;spacingRight=0;verticalAlign=middle;html=1;labelBackgroundColor=none;rounded=0;" edge="1" parent="rEJHbTGSHuWmZIYcSW5n-55">
            <mxGeometry relative="1" as="geometry">
              <mxPoint as="offset" />
              <Array as="points" />
              <mxPoint x="4" y="2" as="sourcePoint" />
              <mxPoint x="744" y="2" as="targetPoint" />
            </mxGeometry>
          </mxCell>
        </UserObject>
        <UserObject label="" tags="Фон" id="rEJHbTGSHuWmZIYcSW5n-58">
          <mxCell style="vsdxID=662;edgeStyle=none;startArrow=none;endArrow=none;startSize=5;endSize=5;strokeWidth=3;strokeColor=#000000;spacingTop=0;spacingBottom=0;spacingLeft=0;spacingRight=0;verticalAlign=middle;html=1;labelBackgroundColor=none;rounded=0;" edge="1" parent="rEJHbTGSHuWmZIYcSW5n-55">
            <mxGeometry relative="1" as="geometry">
              <mxPoint as="offset" />
              <Array as="points" />
              <mxPoint x="4" y="62" as="sourcePoint" />
              <mxPoint x="744" y="62" as="targetPoint" />
            </mxGeometry>
          </mxCell>
        </UserObject>
        <UserObject label="&lt;div style=&quot;font-size: 1px&quot;&gt;&lt;/div&gt;" tags="Фон" id="rEJHbTGSHuWmZIYcSW5n-59">
          <mxCell style="vsdxID=663;edgeStyle=none;startArrow=none;endArrow=none;startSize=5;endSize=5;strokeWidth=3;strokeColor=#000000;spacingTop=0;spacingBottom=0;spacingLeft=0;spacingRight=0;verticalAlign=middle;html=1;labelBackgroundColor=none;rounded=0;align=center;" edge="1" parent="rEJHbTGSHuWmZIYcSW5n-55">
            <mxGeometry relative="1" as="geometry">
              <mxPoint as="offset" />
              <Array as="points" />
              <mxPoint x="4" y="162" as="sourcePoint" />
              <mxPoint x="744" y="162" as="targetPoint" />
            </mxGeometry>
          </mxCell>
        </UserObject>
        <UserObject label="" tags="Фон" id="rEJHbTGSHuWmZIYcSW5n-60">
          <mxCell style="vsdxID=664;edgeStyle=none;startArrow=none;endArrow=none;startSize=5;endSize=5;strokeWidth=3;strokeColor=#000000;spacingTop=0;spacingBottom=0;spacingLeft=0;spacingRight=0;verticalAlign=middle;html=1;labelBackgroundColor=none;rounded=0;" edge="1" parent="rEJHbTGSHuWmZIYcSW5n-55">
            <mxGeometry relative="1" as="geometry">
              <Array as="points" />
              <mxPoint x="72" y="222" as="sourcePoint" />
              <mxPoint x="72" y="2" as="targetPoint" />
            </mxGeometry>
          </mxCell>
        </UserObject>
        <UserObject label="" tags="Фон" id="rEJHbTGSHuWmZIYcSW5n-61">
          <mxCell style="vsdxID=665;edgeStyle=none;startArrow=none;endArrow=none;startSize=5;endSize=5;strokeWidth=3;strokeColor=#000000;spacingTop=0;spacingBottom=0;spacingLeft=0;spacingRight=0;verticalAlign=middle;html=1;labelBackgroundColor=none;rounded=0;" edge="1" parent="rEJHbTGSHuWmZIYcSW5n-55">
            <mxGeometry relative="1" as="geometry">
              <Array as="points" />
              <mxPoint x="164" y="222" as="sourcePoint" />
              <mxPoint x="164" y="2" as="targetPoint" />
            </mxGeometry>
          </mxCell>
        </UserObject>
        <UserObject label="" tags="Фон" id="rEJHbTGSHuWmZIYcSW5n-62">
          <mxCell style="vsdxID=666;edgeStyle=none;startArrow=none;endArrow=none;startSize=5;endSize=5;strokeWidth=3;strokeColor=#000000;spacingTop=0;spacingBottom=0;spacingLeft=0;spacingRight=0;verticalAlign=middle;html=1;labelBackgroundColor=none;rounded=0;" edge="1" parent="rEJHbTGSHuWmZIYcSW5n-55">
            <mxGeometry relative="1" as="geometry">
              <Array as="points" />
              <mxPoint x="224" y="222" as="sourcePoint" />
              <mxPoint x="224" y="2" as="targetPoint" />
            </mxGeometry>
          </mxCell>
        </UserObject>
        <UserObject label="" tags="Фон" id="rEJHbTGSHuWmZIYcSW5n-63">
          <mxCell style="vsdxID=667;edgeStyle=none;startArrow=none;endArrow=none;startSize=5;endSize=5;strokeWidth=3;strokeColor=#000000;spacingTop=0;spacingBottom=0;spacingLeft=0;spacingRight=0;verticalAlign=middle;html=1;labelBackgroundColor=none;rounded=0;" edge="1" parent="rEJHbTGSHuWmZIYcSW5n-55">
            <mxGeometry relative="1" as="geometry">
              <Array as="points" />
              <mxPoint x="264" y="222" as="sourcePoint" />
              <mxPoint x="264" y="2" as="targetPoint" />
            </mxGeometry>
          </mxCell>
        </UserObject>
        <UserObject label="" tags="Фон" id="rEJHbTGSHuWmZIYcSW5n-64">
          <mxCell style="vsdxID=668;edgeStyle=none;startArrow=none;endArrow=none;startSize=5;endSize=5;strokeWidth=3;strokeColor=#000000;spacingTop=0;spacingBottom=0;spacingLeft=0;spacingRight=0;verticalAlign=middle;html=1;labelBackgroundColor=none;rounded=0;" edge="1" parent="rEJHbTGSHuWmZIYcSW5n-55">
            <mxGeometry relative="1" as="geometry">
              <Array as="points" />
              <mxPoint x="544" y="222" as="sourcePoint" />
              <mxPoint x="544" y="62" as="targetPoint" />
            </mxGeometry>
          </mxCell>
        </UserObject>
        <UserObject label="" tags="Фон" id="rEJHbTGSHuWmZIYcSW5n-65">
          <mxCell style="vsdxID=669;edgeStyle=none;startArrow=none;endArrow=none;startSize=5;endSize=5;strokeColor=#000000;spacingTop=0;spacingBottom=0;spacingLeft=0;spacingRight=0;verticalAlign=middle;html=1;labelBackgroundColor=none;rounded=0;" edge="1" parent="rEJHbTGSHuWmZIYcSW5n-55">
            <mxGeometry relative="1" as="geometry">
              <mxPoint as="offset" />
              <Array as="points" />
              <mxPoint x="4" y="202" as="sourcePoint" />
              <mxPoint x="264" y="202" as="targetPoint" />
            </mxGeometry>
          </mxCell>
        </UserObject>
        <UserObject label="&lt;div style=&quot;font-size: 1px&quot;&gt;&lt;/div&gt;" tags="Фон" id="rEJHbTGSHuWmZIYcSW5n-66">
          <mxCell style="vsdxID=670;edgeStyle=none;startArrow=none;endArrow=none;startSize=5;endSize=5;strokeColor=#000000;spacingTop=0;spacingBottom=0;spacingLeft=0;spacingRight=0;verticalAlign=middle;html=1;labelBackgroundColor=none;rounded=0;align=center;" edge="1" parent="rEJHbTGSHuWmZIYcSW5n-55">
            <mxGeometry relative="1" as="geometry">
              <mxPoint as="offset" />
              <Array as="points" />
              <mxPoint x="4" y="182" as="sourcePoint" />
              <mxPoint x="264" y="182" as="targetPoint" />
            </mxGeometry>
          </mxCell>
        </UserObject>
        <UserObject label="" tags="Фон" id="rEJHbTGSHuWmZIYcSW5n-67">
          <mxCell style="vsdxID=671;edgeStyle=none;startArrow=none;endArrow=none;startSize=5;endSize=5;strokeColor=#000000;spacingTop=0;spacingBottom=0;spacingLeft=0;spacingRight=0;verticalAlign=middle;html=1;labelBackgroundColor=none;rounded=0;" edge="1" parent="rEJHbTGSHuWmZIYcSW5n-55">
            <mxGeometry relative="1" as="geometry">
              <mxPoint as="offset" />
              <Array as="points" />
              <mxPoint x="4" y="142" as="sourcePoint" />
              <mxPoint x="264" y="142" as="targetPoint" />
            </mxGeometry>
          </mxCell>
        </UserObject>
        <UserObject label="" tags="Фон" id="rEJHbTGSHuWmZIYcSW5n-68">
          <mxCell style="vsdxID=672;edgeStyle=none;startArrow=none;endArrow=none;startSize=5;endSize=5;strokeColor=#000000;spacingTop=0;spacingBottom=0;spacingLeft=0;spacingRight=0;verticalAlign=middle;html=1;labelBackgroundColor=none;rounded=0;" edge="1" parent="rEJHbTGSHuWmZIYcSW5n-55">
            <mxGeometry relative="1" as="geometry">
              <mxPoint as="offset" />
              <Array as="points" />
              <mxPoint x="4" y="122" as="sourcePoint" />
              <mxPoint x="264" y="122" as="targetPoint" />
            </mxGeometry>
          </mxCell>
        </UserObject>
        <UserObject label="&lt;div style=&quot;font-size: 1px&quot;&gt;&lt;/div&gt;" tags="Фон" id="rEJHbTGSHuWmZIYcSW5n-69">
          <mxCell style="vsdxID=673;edgeStyle=none;startArrow=none;endArrow=none;startSize=5;endSize=5;strokeWidth=3;strokeColor=#000000;spacingTop=0;spacingBottom=0;spacingLeft=0;spacingRight=0;verticalAlign=middle;html=1;labelBackgroundColor=none;rounded=0;align=center;" edge="1" parent="rEJHbTGSHuWmZIYcSW5n-55">
            <mxGeometry relative="1" as="geometry">
              <mxPoint as="offset" />
              <Array as="points" />
              <mxPoint x="4" y="102" as="sourcePoint" />
              <mxPoint x="264" y="102" as="targetPoint" />
            </mxGeometry>
          </mxCell>
        </UserObject>
        <UserObject label="" tags="Фон" id="rEJHbTGSHuWmZIYcSW5n-70">
          <mxCell style="vsdxID=674;edgeStyle=none;startArrow=none;endArrow=none;startSize=5;endSize=5;strokeWidth=3;strokeColor=#000000;spacingTop=0;spacingBottom=0;spacingLeft=0;spacingRight=0;verticalAlign=middle;html=1;labelBackgroundColor=none;rounded=0;" edge="1" parent="rEJHbTGSHuWmZIYcSW5n-55">
            <mxGeometry relative="1" as="geometry">
              <mxPoint as="offset" />
              <Array as="points" />
              <mxPoint x="4" y="82" as="sourcePoint" />
              <mxPoint x="264" y="82" as="targetPoint" />
            </mxGeometry>
          </mxCell>
        </UserObject>
        <UserObject label="" tags="Фон" id="rEJHbTGSHuWmZIYcSW5n-71">
          <mxCell style="vsdxID=675;edgeStyle=none;startArrow=none;endArrow=none;startSize=5;endSize=5;strokeColor=#000000;spacingTop=0;spacingBottom=0;spacingLeft=0;spacingRight=0;verticalAlign=middle;html=1;labelBackgroundColor=none;rounded=0;" edge="1" parent="rEJHbTGSHuWmZIYcSW5n-55">
            <mxGeometry relative="1" as="geometry">
              <mxPoint as="offset" />
              <Array as="points" />
              <mxPoint x="4" y="42" as="sourcePoint" />
              <mxPoint x="264" y="42" as="targetPoint" />
            </mxGeometry>
          </mxCell>
        </UserObject>
        <UserObject label="" tags="Фон" id="rEJHbTGSHuWmZIYcSW5n-72">
          <mxCell style="vsdxID=676;edgeStyle=none;startArrow=none;endArrow=none;startSize=5;endSize=5;strokeColor=#000000;spacingTop=0;spacingBottom=0;spacingLeft=0;spacingRight=0;verticalAlign=middle;html=1;labelBackgroundColor=none;rounded=0;" edge="1" parent="rEJHbTGSHuWmZIYcSW5n-55">
            <mxGeometry relative="1" as="geometry">
              <mxPoint as="offset" />
              <Array as="points" />
              <mxPoint x="4" y="22" as="sourcePoint" />
              <mxPoint x="264" y="22" as="targetPoint" />
            </mxGeometry>
          </mxCell>
        </UserObject>
        <UserObject label="" tags="Фон" id="rEJHbTGSHuWmZIYcSW5n-73">
          <mxCell style="vsdxID=677;edgeStyle=none;startArrow=none;endArrow=none;startSize=5;endSize=5;strokeWidth=3;strokeColor=#000000;spacingTop=0;spacingBottom=0;spacingLeft=0;spacingRight=0;verticalAlign=middle;html=1;labelBackgroundColor=none;rounded=0;" edge="1" parent="rEJHbTGSHuWmZIYcSW5n-55">
            <mxGeometry relative="1" as="geometry">
              <Array as="points" />
              <mxPoint x="32" y="2" as="sourcePoint" />
              <mxPoint x="32" y="102" as="targetPoint" />
            </mxGeometry>
          </mxCell>
        </UserObject>
        <mxCell id="rEJHbTGSHuWmZIYcSW5n-74" value="&lt;div style=&quot;font-size: 1px&quot;&gt;&lt;/div&gt;" style="text;vsdxID=677;edgeStyle=none;startArrow=none;endArrow=none;startSize=5;endSize=5;strokeWidth=3;strokeColor=none;spacingTop=0;spacingBottom=0;spacingLeft=0;spacingRight=0;verticalAlign=middle;html=1;labelBackgroundColor=none;rounded=0;align=center;fillColor=none;gradientColor=none;whiteSpace=wrap;;html=1;;rotation=270" vertex="1" parent="rEJHbTGSHuWmZIYcSW5n-73">
          <mxGeometry width="100" height="1" relative="1" as="geometry">
            <mxPoint x="-50" y="-0.5" as="offset" />
          </mxGeometry>
        </mxCell>
        <UserObject label="" tags="Фон" id="rEJHbTGSHuWmZIYcSW5n-75">
          <mxCell style="vsdxID=678;edgeStyle=none;startArrow=none;endArrow=none;startSize=5;endSize=5;strokeWidth=3;strokeColor=#000000;spacingTop=0;spacingBottom=0;spacingLeft=0;spacingRight=0;verticalAlign=middle;html=1;labelBackgroundColor=none;rounded=0;" edge="1" parent="rEJHbTGSHuWmZIYcSW5n-55">
            <mxGeometry relative="1" as="geometry">
              <mxPoint as="offset" />
              <Array as="points" />
              <mxPoint x="544" y="142" as="sourcePoint" />
              <mxPoint x="744" y="142" as="targetPoint" />
            </mxGeometry>
          </mxCell>
        </UserObject>
        <UserObject label="" tags="Фон" id="rEJHbTGSHuWmZIYcSW5n-76">
          <mxCell style="vsdxID=679;edgeStyle=none;startArrow=none;endArrow=none;startSize=5;endSize=5;strokeWidth=3;strokeColor=#000000;spacingTop=0;spacingBottom=0;spacingLeft=0;spacingRight=0;verticalAlign=middle;html=1;labelBackgroundColor=none;rounded=0;" edge="1" parent="rEJHbTGSHuWmZIYcSW5n-55">
            <mxGeometry relative="1" as="geometry">
              <mxPoint as="offset" />
              <Array as="points" />
              <mxPoint x="544" y="82" as="sourcePoint" />
              <mxPoint x="744" y="82" as="targetPoint" />
            </mxGeometry>
          </mxCell>
        </UserObject>
        <UserObject label="" tags="Фон" id="rEJHbTGSHuWmZIYcSW5n-77">
          <mxCell style="vsdxID=680;edgeStyle=none;startArrow=none;endArrow=none;startSize=5;endSize=5;strokeColor=#000000;spacingTop=0;spacingBottom=0;spacingLeft=0;spacingRight=0;verticalAlign=middle;html=1;labelBackgroundColor=none;rounded=0;" edge="1" parent="rEJHbTGSHuWmZIYcSW5n-55">
            <mxGeometry relative="1" as="geometry">
              <Array as="points" />
              <mxPoint x="564" y="82" as="sourcePoint" />
              <mxPoint x="564" y="142" as="targetPoint" />
            </mxGeometry>
          </mxCell>
        </UserObject>
        <UserObject label="" tags="Фон" id="rEJHbTGSHuWmZIYcSW5n-78">
          <mxCell style="vsdxID=681;edgeStyle=none;startArrow=none;endArrow=none;startSize=5;endSize=5;strokeColor=#000000;spacingTop=0;spacingBottom=0;spacingLeft=0;spacingRight=0;verticalAlign=middle;html=1;labelBackgroundColor=none;rounded=0;" edge="1" parent="rEJHbTGSHuWmZIYcSW5n-55">
            <mxGeometry relative="1" as="geometry">
              <Array as="points" />
              <mxPoint x="584" y="82" as="sourcePoint" />
              <mxPoint x="584" y="142" as="targetPoint" />
            </mxGeometry>
          </mxCell>
        </UserObject>
        <UserObject label="" tags="Фон" id="rEJHbTGSHuWmZIYcSW5n-79">
          <mxCell style="vsdxID=682;edgeStyle=none;startArrow=none;endArrow=none;startSize=5;endSize=5;strokeWidth=3;strokeColor=#000000;spacingTop=0;spacingBottom=0;spacingLeft=0;spacingRight=0;verticalAlign=middle;html=1;labelBackgroundColor=none;rounded=0;" edge="1" parent="rEJHbTGSHuWmZIYcSW5n-55">
            <mxGeometry relative="1" as="geometry">
              <Array as="points" />
              <mxPoint x="604" y="62" as="sourcePoint" />
              <mxPoint x="604" y="142" as="targetPoint" />
            </mxGeometry>
          </mxCell>
        </UserObject>
        <UserObject label="" tags="Фон" id="rEJHbTGSHuWmZIYcSW5n-80">
          <mxCell style="vsdxID=683;edgeStyle=none;startArrow=none;endArrow=none;startSize=5;endSize=5;strokeWidth=3;strokeColor=#000000;spacingTop=0;spacingBottom=0;spacingLeft=0;spacingRight=0;verticalAlign=middle;html=1;labelBackgroundColor=none;rounded=0;" edge="1" parent="rEJHbTGSHuWmZIYcSW5n-55">
            <mxGeometry relative="1" as="geometry">
              <Array as="points" />
              <mxPoint x="670" y="62" as="sourcePoint" />
              <mxPoint x="670" y="142" as="targetPoint" />
            </mxGeometry>
          </mxCell>
        </UserObject>
        <UserObject label="" tags="Фон" id="rEJHbTGSHuWmZIYcSW5n-81">
          <mxCell style="vsdxID=684;edgeStyle=none;startArrow=none;endArrow=none;startSize=5;endSize=5;strokeWidth=3;strokeColor=#000000;spacingTop=0;spacingBottom=0;spacingLeft=0;spacingRight=0;verticalAlign=middle;html=1;labelBackgroundColor=none;rounded=0;" edge="1" parent="rEJHbTGSHuWmZIYcSW5n-55">
            <mxGeometry relative="1" as="geometry">
              <Array as="points" />
              <mxPoint x="624" y="142" as="sourcePoint" />
              <mxPoint x="624" y="162" as="targetPoint" />
            </mxGeometry>
          </mxCell>
        </UserObject>
        <UserObject label="&lt;div style=&quot;font-size: 1px&quot;&gt;&lt;font style=&quot;font-size:12.7px;font-family:GOST type A;color:#000000;direction:ltr;letter-spacing:0px;line-height:120%;opacity:1&quot;&gt;&lt;i&gt;Н.контроль&lt;br/&gt;&lt;/i&gt;&lt;/font&gt;&lt;/div&gt;" tags="Фон" id="rEJHbTGSHuWmZIYcSW5n-82">
          <mxCell style="verticalAlign=middle;align=center;vsdxID=685;fillColor=none;gradientColor=none;strokeColor=none;points=[];labelBackgroundColor=none;rounded=0;html=1;whiteSpace=wrap;" vertex="1" parent="rEJHbTGSHuWmZIYcSW5n-55">
            <mxGeometry y="183" width="76" height="19" as="geometry" />
          </mxCell>
        </UserObject>
        <UserObject label="&lt;div style=&quot;font-size: 1px&quot;&gt;&lt;font style=&quot;font-size:12.7px;font-family:GOST type A;color:#000000;direction:ltr;letter-spacing:0px;line-height:120%;opacity:1&quot;&gt;&lt;i&gt;Утв.&lt;br/&gt;&lt;/i&gt;&lt;/font&gt;&lt;/div&gt;" tags="Фон" id="rEJHbTGSHuWmZIYcSW5n-83">
          <mxCell style="verticalAlign=middle;align=center;vsdxID=686;fillColor=none;gradientColor=none;strokeColor=none;points=[];labelBackgroundColor=none;rounded=0;html=1;whiteSpace=wrap;" vertex="1" parent="rEJHbTGSHuWmZIYcSW5n-55">
            <mxGeometry x="5" y="202" width="65" height="19" as="geometry" />
          </mxCell>
        </UserObject>
        <UserObject label="&lt;div style=&quot;font-size: 1px&quot;&gt;&lt;font style=&quot;font-size:12.7px;font-family:GOST type A;color:#000000;direction:ltr;letter-spacing:0px;line-height:120%;opacity:1&quot;&gt;&lt;i&gt;Т.контроль&lt;br/&gt;&lt;/i&gt;&lt;/font&gt;&lt;/div&gt;" tags="Фон" id="rEJHbTGSHuWmZIYcSW5n-84">
          <mxCell style="verticalAlign=middle;align=center;vsdxID=687;fillColor=none;gradientColor=none;strokeColor=none;points=[];labelBackgroundColor=none;rounded=0;html=1;whiteSpace=wrap;" vertex="1" parent="rEJHbTGSHuWmZIYcSW5n-55">
            <mxGeometry y="142" width="74" height="18" as="geometry" />
          </mxCell>
        </UserObject>
        <UserObject label="&lt;div style=&quot;font-size: 1px&quot;&gt;&lt;font style=&quot;font-size:12.7px;font-family:GOST type A;color:#000000;direction:ltr;letter-spacing:0px;line-height:120%;opacity:1&quot;&gt;&lt;i&gt;Провер.&lt;br/&gt;&lt;/i&gt;&lt;/font&gt;&lt;/div&gt;" tags="Фон" id="rEJHbTGSHuWmZIYcSW5n-85">
          <mxCell style="verticalAlign=middle;align=center;vsdxID=688;fillColor=none;gradientColor=none;strokeColor=none;points=[];labelBackgroundColor=none;rounded=0;html=1;whiteSpace=wrap;" vertex="1" parent="rEJHbTGSHuWmZIYcSW5n-55">
            <mxGeometry x="5" y="122" width="65" height="19" as="geometry" />
          </mxCell>
        </UserObject>
        <UserObject label="&lt;div style=&quot;font-size: 1px&quot;&gt;&lt;font style=&quot;font-size:12.7px;font-family:GOST type A;color:#000000;direction:ltr;letter-spacing:0px;line-height:120%;opacity:1&quot;&gt;&lt;i&gt;Разраб.&lt;br/&gt;&lt;/i&gt;&lt;/font&gt;&lt;/div&gt;" tags="Фон" id="rEJHbTGSHuWmZIYcSW5n-86">
          <mxCell style="verticalAlign=middle;align=center;vsdxID=689;fillColor=none;gradientColor=none;strokeColor=none;points=[];labelBackgroundColor=none;rounded=0;html=1;whiteSpace=wrap;" vertex="1" parent="rEJHbTGSHuWmZIYcSW5n-55">
            <mxGeometry x="5" y="103" width="65" height="17" as="geometry" />
          </mxCell>
        </UserObject>
        <UserObject label="&lt;div style=&quot;font-size: 1px&quot;&gt;&lt;font style=&quot;font-size:12.7px;font-family:GOST type A;color:#000000;direction:ltr;letter-spacing:0px;line-height:120%;opacity:1&quot;&gt;&lt;i&gt;Изм.&lt;br/&gt;&lt;/i&gt;&lt;/font&gt;&lt;/div&gt;" tags="Фон" id="rEJHbTGSHuWmZIYcSW5n-87">
          <mxCell style="verticalAlign=middle;align=center;vsdxID=690;fillColor=none;gradientColor=none;strokeColor=none;points=[];labelBackgroundColor=none;rounded=0;html=1;whiteSpace=wrap;" vertex="1" parent="rEJHbTGSHuWmZIYcSW5n-55">
            <mxGeometry y="83" width="36" height="17" as="geometry" />
          </mxCell>
        </UserObject>
        <UserObject label="&lt;div style=&quot;font-size: 1px&quot;&gt;&lt;font style=&quot;font-size:12.7px;font-family:GOST type A;color:#000000;direction:ltr;letter-spacing:0px;line-height:120%;opacity:1&quot;&gt;&lt;i&gt;Лист&lt;br/&gt;&lt;/i&gt;&lt;/font&gt;&lt;/div&gt;" tags="Фон" id="rEJHbTGSHuWmZIYcSW5n-88">
          <mxCell style="verticalAlign=middle;align=center;vsdxID=691;fillColor=none;gradientColor=none;strokeColor=none;points=[];labelBackgroundColor=none;rounded=0;html=1;whiteSpace=wrap;" vertex="1" parent="rEJHbTGSHuWmZIYcSW5n-55">
            <mxGeometry x="30" y="83" width="42" height="17" as="geometry" />
          </mxCell>
        </UserObject>
        <UserObject label="&lt;div style=&quot;font-size: 1px&quot;&gt;&lt;font style=&quot;font-size:12.7px;font-family:GOST type A;color:#000000;direction:ltr;letter-spacing:0px;line-height:120%;opacity:1&quot;&gt;&lt;i&gt;№ докум.&lt;br/&gt;&lt;/i&gt;&lt;/font&gt;&lt;/div&gt;" tags="Фон" id="rEJHbTGSHuWmZIYcSW5n-89">
          <mxCell style="verticalAlign=middle;align=center;vsdxID=692;fillColor=none;gradientColor=none;strokeColor=none;points=[];labelBackgroundColor=none;rounded=0;html=1;whiteSpace=wrap;" vertex="1" parent="rEJHbTGSHuWmZIYcSW5n-55">
            <mxGeometry x="73" y="83" width="88" height="17" as="geometry" />
          </mxCell>
        </UserObject>
        <UserObject label="&lt;div style=&quot;font-size: 1px&quot;&gt;&lt;p style=&quot;align:left;margin-left:0;margin-right:0;margin-top:0px;margin-bottom:0px;text-indent:0;valign:middle;direction:ltr;&quot;&gt;&lt;font style=&quot;font-size:12.7px;font-family:GOST type A;color:#000000;direction:ltr;letter-spacing:0px;line-height:120%;opacity:1&quot;&gt;&lt;i&gt;Птахова А.М.&lt;br&gt;&lt;/i&gt;&lt;/font&gt;&lt;/p&gt;&lt;/div&gt;" tags="Фон" id="rEJHbTGSHuWmZIYcSW5n-90">
          <mxCell style="verticalAlign=middle;align=left;vsdxID=693;fillColor=none;gradientColor=none;strokeColor=none;points=[];labelBackgroundColor=none;rounded=0;html=1;whiteSpace=wrap;" vertex="1" parent="rEJHbTGSHuWmZIYcSW5n-55">
            <mxGeometry x="73" y="102" width="88" height="19" as="geometry" />
          </mxCell>
        </UserObject>
        <UserObject label="&lt;div style=&quot;font-size: 1px&quot;&gt;&lt;font style=&quot;font-size:12.7px;font-family:GOST type A;color:#000000;direction:ltr;letter-spacing:0px;line-height:120%;opacity:1&quot;&gt;&lt;i&gt;Подп.&lt;br/&gt;&lt;/i&gt;&lt;/font&gt;&lt;/div&gt;" tags="Фон" id="rEJHbTGSHuWmZIYcSW5n-91">
          <mxCell style="verticalAlign=middle;align=center;vsdxID=694;fillColor=none;gradientColor=none;strokeColor=none;points=[];labelBackgroundColor=none;rounded=0;html=1;whiteSpace=wrap;" vertex="1" parent="rEJHbTGSHuWmZIYcSW5n-55">
            <mxGeometry x="165" y="83" width="57" height="17" as="geometry" />
          </mxCell>
        </UserObject>
        <UserObject label="&lt;div style=&quot;font-size: 1px&quot;&gt;&lt;font style=&quot;font-size:12.7px;font-family:GOST type A;color:#000000;direction:ltr;letter-spacing:0px;line-height:120%;opacity:1&quot;&gt;&lt;i&gt;Дата&lt;br/&gt;&lt;/i&gt;&lt;/font&gt;&lt;/div&gt;" tags="Фон" id="rEJHbTGSHuWmZIYcSW5n-92">
          <mxCell style="verticalAlign=middle;align=center;vsdxID=695;fillColor=none;gradientColor=none;strokeColor=none;points=[];labelBackgroundColor=none;rounded=0;html=1;whiteSpace=wrap;" vertex="1" parent="rEJHbTGSHuWmZIYcSW5n-55">
            <mxGeometry x="222" y="83" width="42" height="17" as="geometry" />
          </mxCell>
        </UserObject>
        <UserObject label="&lt;div style=&quot;font-size: 1px&quot;&gt;&lt;font style=&quot;font-size:12.7px;font-family:GOST type A;color:#000000;direction:ltr;letter-spacing:0px;line-height:120%;opacity:1&quot;&gt;&lt;i&gt;Лит.&lt;br/&gt;&lt;/i&gt;&lt;/font&gt;&lt;/div&gt;" tags="Фон" id="rEJHbTGSHuWmZIYcSW5n-93">
          <mxCell style="verticalAlign=middle;align=center;vsdxID=696;fillColor=none;gradientColor=none;strokeColor=none;points=[];labelBackgroundColor=none;rounded=0;html=1;whiteSpace=wrap;" vertex="1" parent="rEJHbTGSHuWmZIYcSW5n-55">
            <mxGeometry x="544" y="63" width="57" height="17" as="geometry" />
          </mxCell>
        </UserObject>
        <UserObject label="&lt;div style=&quot;font-size: 1px&quot;&gt;&lt;font style=&quot;font-size:12.7px;font-family:GOST type A;color:#000000;direction:ltr;letter-spacing:0px;line-height:120%;opacity:1&quot;&gt;&lt;i&gt;Масса&lt;br/&gt;&lt;/i&gt;&lt;/font&gt;&lt;/div&gt;" tags="Фон" id="rEJHbTGSHuWmZIYcSW5n-94">
          <mxCell style="verticalAlign=middle;align=center;vsdxID=697;fillColor=none;gradientColor=none;strokeColor=none;points=[];labelBackgroundColor=none;rounded=0;html=1;whiteSpace=wrap;" vertex="1" parent="rEJHbTGSHuWmZIYcSW5n-55">
            <mxGeometry x="605" y="63" width="63" height="17" as="geometry" />
          </mxCell>
        </UserObject>
        <UserObject label="&lt;div style=&quot;font-size: 1px&quot;&gt;&lt;font style=&quot;font-size:12.7px;font-family:GOST type A;color:#000000;direction:ltr;letter-spacing:0px;line-height:120%;opacity:1&quot;&gt;&lt;i&gt;Масштаб&lt;br/&gt;&lt;/i&gt;&lt;/font&gt;&lt;/div&gt;" tags="Фон" id="rEJHbTGSHuWmZIYcSW5n-95">
          <mxCell style="verticalAlign=middle;align=center;vsdxID=698;fillColor=none;gradientColor=none;strokeColor=none;points=[];labelBackgroundColor=none;rounded=0;html=1;whiteSpace=wrap;" vertex="1" parent="rEJHbTGSHuWmZIYcSW5n-55">
            <mxGeometry x="671" y="63" width="71" height="17" as="geometry" />
          </mxCell>
        </UserObject>
        <UserObject label="&lt;div style=&quot;font-size: 1px&quot;&gt;&lt;font style=&quot;font-size:12.7px;font-family:GOST type A;color:#000000;direction:ltr;letter-spacing:0px;line-height:120%;opacity:1&quot;&gt;&lt;i&gt;Листов 1&lt;br&gt;&lt;/i&gt;&lt;/font&gt;&lt;/div&gt;" tags="Фон" id="rEJHbTGSHuWmZIYcSW5n-96">
          <mxCell style="verticalAlign=middle;align=center;vsdxID=699;fillColor=none;gradientColor=none;strokeColor=none;points=[];labelBackgroundColor=none;rounded=0;html=1;whiteSpace=wrap;" vertex="1" parent="rEJHbTGSHuWmZIYcSW5n-55">
            <mxGeometry x="625" y="143" width="117" height="17" as="geometry" />
          </mxCell>
        </UserObject>
        <UserObject label="&lt;div style=&quot;font-size: 1px&quot;&gt;&lt;font style=&quot;font-size:12.7px;font-family:GOST type A;color:#000000;direction:ltr;letter-spacing:0px;line-height:120%;opacity:1&quot;&gt;&lt;i&gt;Лист 1&lt;br&gt;&lt;/i&gt;&lt;/font&gt;&lt;/div&gt;" tags="Фон" id="rEJHbTGSHuWmZIYcSW5n-97">
          <mxCell style="verticalAlign=middle;align=center;vsdxID=700;fillColor=none;gradientColor=none;strokeColor=none;points=[];labelBackgroundColor=none;rounded=0;html=1;whiteSpace=wrap;" vertex="1" parent="rEJHbTGSHuWmZIYcSW5n-55">
            <mxGeometry x="545" y="143" width="76" height="17" as="geometry" />
          </mxCell>
        </UserObject>
        <UserObject label="&lt;div style=&quot;font-size: 1px&quot;&gt;&lt;p style=&quot;align:center;margin-left:0;margin-right:0;margin-top:0px;margin-bottom:0px;text-indent:0;valign:middle;direction:ltr;&quot;&gt;&lt;font style=&quot;font-size:33.87px;font-family:GOST type A;color:#000000;direction:ltr;letter-spacing:0px;line-height:120%;opacity:1&quot;&gt;&lt;i&gt;ТПЖА 09.03.01.487 ПЛ1&lt;br&gt;&lt;/i&gt;&lt;/font&gt;&lt;/p&gt;&lt;/div&gt;" tags="Фон" id="rEJHbTGSHuWmZIYcSW5n-98">
          <mxCell style="verticalAlign=middle;align=center;vsdxID=701;fillColor=none;gradientColor=none;strokeColor=none;points=[];labelBackgroundColor=none;rounded=0;html=1;whiteSpace=wrap;" vertex="1" parent="rEJHbTGSHuWmZIYcSW5n-55">
            <mxGeometry x="263" width="479" height="60" as="geometry" />
          </mxCell>
        </UserObject>
        <UserObject label="&lt;div style=&quot;font-size: 1px&quot;&gt;&lt;br&gt;&lt;/div&gt;" tags="Фон" id="rEJHbTGSHuWmZIYcSW5n-99">
          <mxCell style="verticalAlign=middle;align=center;vsdxID=702;fillColor=none;gradientColor=none;strokeColor=none;points=[];labelBackgroundColor=none;rounded=0;html=1;whiteSpace=wrap;" vertex="1" parent="rEJHbTGSHuWmZIYcSW5n-55">
            <mxGeometry x="263" y="61" width="279" height="101" as="geometry" />
          </mxCell>
        </UserObject>
        <UserObject label="&lt;div style=&quot;font-size: 1px&quot;&gt;&lt;p style=&quot;align:left;margin-left:0;margin-right:0;margin-top:0px;margin-bottom:0px;text-indent:0;valign:middle;direction:ltr;&quot;&gt;&lt;font style=&quot;font-size:12.7px;font-family:GOST type A;color:#000000;direction:ltr;letter-spacing:0px;line-height:120%;opacity:1&quot;&gt;&lt;i&gt;Клюкин В.Л.&lt;br&gt;&lt;/i&gt;&lt;/font&gt;&lt;/p&gt;&lt;/div&gt;" tags="Фон" id="rEJHbTGSHuWmZIYcSW5n-100">
          <mxCell style="verticalAlign=middle;align=left;vsdxID=703;fillColor=none;gradientColor=none;strokeColor=none;points=[];labelBackgroundColor=none;rounded=0;html=1;whiteSpace=wrap;" vertex="1" parent="rEJHbTGSHuWmZIYcSW5n-55">
            <mxGeometry x="73" y="121" width="88" height="21" as="geometry" />
          </mxCell>
        </UserObject>
        <UserObject label="&lt;div style=&quot;&quot;&gt;&lt;br&gt;&lt;/div&gt;" tags="Фон" id="rEJHbTGSHuWmZIYcSW5n-101">
          <mxCell style="verticalAlign=middle;align=center;vsdxID=704;fillColor=none;gradientColor=none;shape=stencil(nZBLDoAgDERP0z3SIyjew0SURgSD+Lu9kMZoXLhwN9O+tukAlrNpJg1SzDH4QW/URgNYgZTkjA4UkwJUgGXng+6DX1zLfmoymdXo17xh5zmRJ6Q42BWCfc2oJfdAr+Yv+AP9Cb7OJ3H/2JG1HNGz/84klThPVCc=);strokeColor=none;points=[];labelBackgroundColor=none;rounded=0;html=1;whiteSpace=wrap;" vertex="1" parent="rEJHbTGSHuWmZIYcSW5n-55">
            <mxGeometry x="263" y="159" width="280" height="60" as="geometry" />
          </mxCell>
        </UserObject>
        <UserObject label="&lt;div style=&quot;font-size: 1px&quot;&gt;&lt;font style=&quot;font-size:16.93px;font-family:GOST type A;color:#000000;direction:ltr;letter-spacing:0px;line-height:120%;opacity:1&quot;&gt;&lt;i&gt;Кафедра ЭВМ&lt;br&gt;Группа ИВТ-31&lt;br&gt;&lt;/i&gt;&lt;/font&gt;&lt;/div&gt;" tags="Фон" id="rEJHbTGSHuWmZIYcSW5n-102">
          <mxCell style="verticalAlign=middle;align=center;vsdxID=705;fillColor=none;gradientColor=none;shape=stencil(nZBLDoAgDERP0z3SIyjew0SURgSD+Lu9kMZoXLhwN9O+tukAlrNpJg1SzDH4QW/URgNYgZTkjA4UkwJUgGXng+6DX1zLfmoymdXo17xh5zmRJ6Q42BWCfc2oJfdAr+Yv+AP9Cb7OJ3H/2JG1HNGz/84klThPVCc=);strokeColor=none;points=[];labelBackgroundColor=none;rounded=0;html=1;whiteSpace=wrap;" vertex="1" parent="rEJHbTGSHuWmZIYcSW5n-55">
            <mxGeometry x="543" y="163" width="200" height="60" as="geometry" />
          </mxCell>
        </UserObject>
        <UserObject label="&lt;div style=&quot;font-size: 1px&quot;&gt;&lt;p style=&quot;align:left;margin-left:0;margin-right:0;margin-top:0px;margin-bottom:0px;text-indent:0;valign:middle;direction:ltr;&quot;&gt;&lt;font style=&quot;font-size:12.7px;font-family:GOST type A;color:#000000;direction:ltr;letter-spacing:0px;line-height:120%;opacity:1&quot;&gt;&lt;i&gt;Мельцов В.Ю.&lt;br&gt;&lt;/i&gt;&lt;/font&gt;&lt;/p&gt;&lt;/div&gt;" tags="Фон" id="rEJHbTGSHuWmZIYcSW5n-103">
          <mxCell style="verticalAlign=middle;align=left;vsdxID=703;fillColor=none;gradientColor=none;strokeColor=none;points=[];labelBackgroundColor=none;rounded=0;html=1;whiteSpace=wrap;" vertex="1" parent="rEJHbTGSHuWmZIYcSW5n-50">
            <mxGeometry x="910" y="2296" width="88" height="21" as="geometry" />
          </mxCell>
        </UserObject>
      </root>
    </mxGraphModel>
  </diagram>
</mxfile>
